Pink Floyd's 1973 album Dark Side of the Moon .wav audio track in synchrony with the movie The Wizard of Oz (1939) in 720p resolution, a.k.a Dark Side of the Rainbow (or Dark Side of Oz).
The movie also contains the original audio track (English) and English subtitles, in case you want to follow the dialogues while listening to the Dark Side of the Moon.

PLEASE SEED!!! (and some feedback would be nice too)

For further reference, please visit:  
http://en.wikipedia.org/wiki/Dark_Side_of_the_Rainbow

MOVIE CREDITS: The.Wizard.Of.Oz.1939.720p.BluRay.x264-SiNNERS

Download .torrent: http://thepiratebay.gl/torrent/6093655/The.Wizard.Of.Oz.1939.720p.BluRay.x264-SiNNERS
 
  The.Wizard.Of.Oz.1939.720p.BluRay.x264-SiNNERS

         Format : mkv
        Runtime : 102 min
       Director : Victor Fleming
          Genre : Adventure | Family | Fantasy | Musical
          Video : 992*720 | x264 | 5511 kbps
          Audio : English | AC3 5.1 | 640 kbps
           Subs : English
         Rating : 8.3/10 (108,249 votes) Top 250 #122

AUDIO TRACK:

Created using qaac 2.18, CoreAudioToolbox 7.9.8.2
Edited with SoX v14.4.1

Channels       : 2
Sample Rate    : 44100
Precision      : 16-bit
Duration       : 01:41:48.19 = 269371322 samples = 458114 CDDA sectors
File Size      : 1.08G
Bit Rate       : 1.41M
Sample Encoding: 16-bit Signed Integer PCM